<mxfile host="Electron" agent="Mozilla/5.0 (Windows NT 10.0; Win64; x64) AppleWebKit/537.36 (KHTML, like Gecko) draw.io/25.0.2 Chrome/128.0.6613.186 Electron/32.2.5 Safari/537.36" version="25.0.2">
  <diagram name="Страница — 1" id="_WXAnfutyMJfWvvPiynL">
    <mxGraphModel dx="995" dy="678" grid="1" gridSize="10" guides="1" tooltips="1" connect="1" arrows="1" fold="1" page="1" pageScale="1" pageWidth="827" pageHeight="1169" math="0" shadow="0">
      <root>
        <mxCell id="0" />
        <mxCell id="1" parent="0" />
        <mxCell id="n8NMJPE-BqWjE6gtwIsE-1" value="Пользователь" style="shape=umlActor;verticalLabelPosition=bottom;verticalAlign=top;html=1;outlineConnect=0;" vertex="1" parent="1">
          <mxGeometry x="440" y="400" width="40" height="80" as="geometry" />
        </mxCell>
        <mxCell id="n8NMJPE-BqWjE6gtwIsE-3" value="Администратор" style="shape=umlActor;verticalLabelPosition=bottom;verticalAlign=top;html=1;outlineConnect=0;" vertex="1" parent="1">
          <mxGeometry x="320" y="400" width="40" height="80" as="geometry" />
        </mxCell>
        <mxCell id="n8NMJPE-BqWjE6gtwIsE-4" value="Управлять своим аккаунтом" style="ellipse;whiteSpace=wrap;html=1;" vertex="1" parent="1">
          <mxGeometry x="524" y="298" width="110" height="50" as="geometry" />
        </mxCell>
        <mxCell id="n8NMJPE-BqWjE6gtwIsE-5" value="" style="endArrow=none;html=1;rounded=0;" edge="1" parent="1" source="n8NMJPE-BqWjE6gtwIsE-1" target="n8NMJPE-BqWjE6gtwIsE-4">
          <mxGeometry width="50" height="50" relative="1" as="geometry">
            <mxPoint x="650" y="500" as="sourcePoint" />
            <mxPoint x="700" y="450" as="targetPoint" />
          </mxGeometry>
        </mxCell>
        <mxCell id="n8NMJPE-BqWjE6gtwIsE-6" value="Получить и редактировать списки" style="ellipse;whiteSpace=wrap;html=1;" vertex="1" parent="1">
          <mxGeometry x="560" y="370" width="110" height="50" as="geometry" />
        </mxCell>
        <mxCell id="n8NMJPE-BqWjE6gtwIsE-7" value="" style="endArrow=none;html=1;rounded=0;" edge="1" parent="1" source="n8NMJPE-BqWjE6gtwIsE-1" target="n8NMJPE-BqWjE6gtwIsE-6">
          <mxGeometry width="50" height="50" relative="1" as="geometry">
            <mxPoint x="640" y="580" as="sourcePoint" />
            <mxPoint x="690" y="530" as="targetPoint" />
          </mxGeometry>
        </mxCell>
        <mxCell id="n8NMJPE-BqWjE6gtwIsE-8" value="&lt;font style=&quot;font-size: 10px;&quot;&gt;Получить и редактировать список лекарств&lt;/font&gt;" style="ellipse;whiteSpace=wrap;html=1;" vertex="1" parent="1">
          <mxGeometry x="761" y="227" width="110" height="50" as="geometry" />
        </mxCell>
        <mxCell id="n8NMJPE-BqWjE6gtwIsE-11" value="&lt;font style=&quot;font-size: 10px;&quot;&gt;Получить и редактировать список растений&lt;/font&gt;" style="ellipse;whiteSpace=wrap;html=1;" vertex="1" parent="1">
          <mxGeometry x="790" y="280" width="110" height="50" as="geometry" />
        </mxCell>
        <mxCell id="n8NMJPE-BqWjE6gtwIsE-12" value="&lt;font style=&quot;font-size: 10px;&quot;&gt;Получить и редактировать список болезней&lt;/font&gt;" style="ellipse;whiteSpace=wrap;html=1;" vertex="1" parent="1">
          <mxGeometry x="781" y="338" width="110" height="50" as="geometry" />
        </mxCell>
        <mxCell id="n8NMJPE-BqWjE6gtwIsE-14" value="" style="endArrow=classic;dashed=1;html=1;rounded=0;endFill=1;" edge="1" parent="1" source="n8NMJPE-BqWjE6gtwIsE-6" target="n8NMJPE-BqWjE6gtwIsE-8">
          <mxGeometry width="50" height="50" relative="1" as="geometry">
            <mxPoint x="640" y="530" as="sourcePoint" />
            <mxPoint x="690" y="480" as="targetPoint" />
          </mxGeometry>
        </mxCell>
        <mxCell id="n8NMJPE-BqWjE6gtwIsE-15" value="" style="endArrow=classic;dashed=1;html=1;rounded=0;endFill=1;" edge="1" parent="1" source="n8NMJPE-BqWjE6gtwIsE-6" target="n8NMJPE-BqWjE6gtwIsE-11">
          <mxGeometry width="50" height="50" relative="1" as="geometry">
            <mxPoint x="659" y="385" as="sourcePoint" />
            <mxPoint x="731" y="345" as="targetPoint" />
          </mxGeometry>
        </mxCell>
        <mxCell id="n8NMJPE-BqWjE6gtwIsE-16" value="" style="endArrow=classic;dashed=1;html=1;rounded=0;endFill=1;" edge="1" parent="1" source="n8NMJPE-BqWjE6gtwIsE-6" target="n8NMJPE-BqWjE6gtwIsE-12">
          <mxGeometry width="50" height="50" relative="1" as="geometry">
            <mxPoint x="679" y="401" as="sourcePoint" />
            <mxPoint x="711" y="399" as="targetPoint" />
          </mxGeometry>
        </mxCell>
        <mxCell id="n8NMJPE-BqWjE6gtwIsE-17" value="&lt;font style=&quot;font-size: 10px;&quot;&gt;Получить и редактировать список дозировок&lt;/font&gt;" style="ellipse;whiteSpace=wrap;html=1;" vertex="1" parent="1">
          <mxGeometry x="782" y="394" width="110" height="50" as="geometry" />
        </mxCell>
        <mxCell id="n8NMJPE-BqWjE6gtwIsE-18" value="" style="endArrow=classic;dashed=1;html=1;rounded=0;endFill=1;" edge="1" parent="1" source="n8NMJPE-BqWjE6gtwIsE-6" target="n8NMJPE-BqWjE6gtwIsE-17">
          <mxGeometry width="50" height="50" relative="1" as="geometry">
            <mxPoint x="668" y="420" as="sourcePoint" />
            <mxPoint x="722" y="440" as="targetPoint" />
          </mxGeometry>
        </mxCell>
        <mxCell id="n8NMJPE-BqWjE6gtwIsE-19" value="&lt;font style=&quot;font-size: 8px;&quot;&gt;Получить и редактировать список болезней-лекарств&lt;/font&gt;" style="ellipse;whiteSpace=wrap;html=1;" vertex="1" parent="1">
          <mxGeometry x="768" y="449" width="110" height="50" as="geometry" />
        </mxCell>
        <mxCell id="n8NMJPE-BqWjE6gtwIsE-21" value="" style="endArrow=classic;dashed=1;html=1;rounded=0;endFill=1;" edge="1" parent="1" source="n8NMJPE-BqWjE6gtwIsE-6" target="n8NMJPE-BqWjE6gtwIsE-19">
          <mxGeometry width="50" height="50" relative="1" as="geometry">
            <mxPoint x="648" y="428" as="sourcePoint" />
            <mxPoint x="702" y="482" as="targetPoint" />
          </mxGeometry>
        </mxCell>
        <mxCell id="n8NMJPE-BqWjE6gtwIsE-23" value="&lt;font style=&quot;font-size: 8px;&quot;&gt;Получить и редактировать список лекарств-растений&lt;/font&gt;" style="ellipse;whiteSpace=wrap;html=1;" vertex="1" parent="1">
          <mxGeometry x="660" y="200" width="110" height="50" as="geometry" />
        </mxCell>
        <mxCell id="n8NMJPE-BqWjE6gtwIsE-24" value="" style="endArrow=classic;dashed=1;html=1;rounded=0;endFill=1;" edge="1" target="n8NMJPE-BqWjE6gtwIsE-23" parent="1" source="n8NMJPE-BqWjE6gtwIsE-6">
          <mxGeometry width="50" height="50" relative="1" as="geometry">
            <mxPoint x="717.0042313070095" y="325.4754324941044" as="sourcePoint" />
            <mxPoint x="722.87" y="177" as="targetPoint" />
          </mxGeometry>
        </mxCell>
        <mxCell id="n8NMJPE-BqWjE6gtwIsE-25" value="&amp;lt;extends&amp;gt;" style="text;html=1;align=center;verticalAlign=middle;resizable=0;points=[];autosize=1;strokeColor=none;fillColor=none;" vertex="1" parent="1">
          <mxGeometry x="690" y="348" width="80" height="30" as="geometry" />
        </mxCell>
        <mxCell id="n8NMJPE-BqWjE6gtwIsE-26" value="" style="endArrow=block;html=1;rounded=0;endFill=0;endSize=11;" edge="1" parent="1" source="n8NMJPE-BqWjE6gtwIsE-3" target="n8NMJPE-BqWjE6gtwIsE-1">
          <mxGeometry width="50" height="50" relative="1" as="geometry">
            <mxPoint x="440" y="330" as="sourcePoint" />
            <mxPoint x="490" y="280" as="targetPoint" />
          </mxGeometry>
        </mxCell>
        <mxCell id="n8NMJPE-BqWjE6gtwIsE-27" value="&lt;font style=&quot;font-size: 10px;&quot;&gt;Получить и редактировать список аккаунтов&lt;/font&gt;" style="ellipse;whiteSpace=wrap;html=1;" vertex="1" parent="1">
          <mxGeometry x="150" y="413" width="110" height="50" as="geometry" />
        </mxCell>
        <mxCell id="n8NMJPE-BqWjE6gtwIsE-28" value="" style="endArrow=none;html=1;rounded=0;" edge="1" parent="1" source="n8NMJPE-BqWjE6gtwIsE-27" target="n8NMJPE-BqWjE6gtwIsE-3">
          <mxGeometry width="50" height="50" relative="1" as="geometry">
            <mxPoint x="260" y="610" as="sourcePoint" />
            <mxPoint x="310" y="560" as="targetPoint" />
          </mxGeometry>
        </mxCell>
        <mxCell id="n8NMJPE-BqWjE6gtwIsE-29" value="Выбрать лечение для растения" style="ellipse;whiteSpace=wrap;html=1;" vertex="1" parent="1">
          <mxGeometry x="560" y="470" width="110" height="50" as="geometry" />
        </mxCell>
        <mxCell id="n8NMJPE-BqWjE6gtwIsE-30" value="" style="endArrow=none;html=1;rounded=0;" edge="1" target="n8NMJPE-BqWjE6gtwIsE-29" parent="1" source="n8NMJPE-BqWjE6gtwIsE-1">
          <mxGeometry width="50" height="50" relative="1" as="geometry">
            <mxPoint x="490" y="563" as="sourcePoint" />
            <mxPoint x="700" y="659" as="targetPoint" />
          </mxGeometry>
        </mxCell>
        <mxCell id="n8NMJPE-BqWjE6gtwIsE-31" value="" style="endArrow=classic;dashed=1;html=1;rounded=0;endFill=1;" edge="1" target="n8NMJPE-BqWjE6gtwIsE-37" parent="1" source="n8NMJPE-BqWjE6gtwIsE-29">
          <mxGeometry width="50" height="50" relative="1" as="geometry">
            <mxPoint x="612.5" y="603" as="sourcePoint" />
            <mxPoint x="657.5" y="674" as="targetPoint" />
          </mxGeometry>
        </mxCell>
        <mxCell id="n8NMJPE-BqWjE6gtwIsE-32" value="" style="endArrow=classic;dashed=1;html=1;rounded=0;endFill=1;" edge="1" target="n8NMJPE-BqWjE6gtwIsE-36" parent="1" source="n8NMJPE-BqWjE6gtwIsE-29">
          <mxGeometry width="50" height="50" relative="1" as="geometry">
            <mxPoint x="624.5" y="593" as="sourcePoint" />
            <mxPoint x="677.5" y="632" as="targetPoint" />
          </mxGeometry>
        </mxCell>
        <mxCell id="n8NMJPE-BqWjE6gtwIsE-33" value="&amp;lt;include&amp;gt;" style="text;html=1;align=center;verticalAlign=middle;resizable=0;points=[];autosize=1;strokeColor=none;fillColor=none;" vertex="1" parent="1">
          <mxGeometry x="654" y="528" width="80" height="30" as="geometry" />
        </mxCell>
        <mxCell id="n8NMJPE-BqWjE6gtwIsE-34" value="" style="endArrow=classic;dashed=1;html=1;rounded=0;endFill=1;" edge="1" target="n8NMJPE-BqWjE6gtwIsE-35" parent="1" source="n8NMJPE-BqWjE6gtwIsE-29">
          <mxGeometry width="50" height="50" relative="1" as="geometry">
            <mxPoint x="622.5" y="580" as="sourcePoint" />
            <mxPoint x="666.5" y="591" as="targetPoint" />
          </mxGeometry>
        </mxCell>
        <mxCell id="n8NMJPE-BqWjE6gtwIsE-35" value="&lt;font style=&quot;font-size: 9px;&quot;&gt;Рассчитать область применения лекарства&lt;/font&gt;" style="ellipse;whiteSpace=wrap;html=1;" vertex="1" parent="1">
          <mxGeometry x="736.5" y="530" width="110" height="50" as="geometry" />
        </mxCell>
        <mxCell id="n8NMJPE-BqWjE6gtwIsE-36" value="&lt;span style=&quot;font-size: 10px;&quot;&gt;Выбрать лекарство&lt;/span&gt;" style="ellipse;whiteSpace=wrap;html=1;" vertex="1" parent="1">
          <mxGeometry x="669" y="578" width="110" height="50" as="geometry" />
        </mxCell>
        <mxCell id="n8NMJPE-BqWjE6gtwIsE-37" value="&lt;font&gt;Выбрать дозировку лекарства&lt;/font&gt;" style="ellipse;whiteSpace=wrap;html=1;" vertex="1" parent="1">
          <mxGeometry x="550" y="590" width="110" height="50" as="geometry" />
        </mxCell>
        <mxCell id="n8NMJPE-BqWjE6gtwIsE-39" value="Авторизоваться в программе" style="ellipse;whiteSpace=wrap;html=1;" vertex="1" parent="1">
          <mxGeometry x="500" y="200" width="110" height="50" as="geometry" />
        </mxCell>
        <mxCell id="n8NMJPE-BqWjE6gtwIsE-40" value="" style="endArrow=none;html=1;rounded=0;" edge="1" parent="1" source="n8NMJPE-BqWjE6gtwIsE-39" target="n8NMJPE-BqWjE6gtwIsE-1">
          <mxGeometry width="50" height="50" relative="1" as="geometry">
            <mxPoint x="380" y="590" as="sourcePoint" />
            <mxPoint x="430" y="540" as="targetPoint" />
          </mxGeometry>
        </mxCell>
        <mxCell id="n8NMJPE-BqWjE6gtwIsE-41" value="" style="endArrow=none;html=1;rounded=0;" edge="1" source="n8NMJPE-BqWjE6gtwIsE-42" parent="1" target="n8NMJPE-BqWjE6gtwIsE-1">
          <mxGeometry width="50" height="50" relative="1" as="geometry">
            <mxPoint x="336" y="318" as="sourcePoint" />
            <mxPoint x="418" y="208" as="targetPoint" />
          </mxGeometry>
        </mxCell>
        <mxCell id="n8NMJPE-BqWjE6gtwIsE-42" value="&lt;font style=&quot;font-size: 11px;&quot;&gt;Деавторизоваться в программе&lt;/font&gt;" style="ellipse;whiteSpace=wrap;html=1;" vertex="1" parent="1">
          <mxGeometry x="380" y="210" width="110" height="50" as="geometry" />
        </mxCell>
      </root>
    </mxGraphModel>
  </diagram>
</mxfile>
